<?xml version="1.0" encoding="UTF-8"?><svg id="a" xmlns="http://www.w3.org/2000/svg" xmlns:xlink="http://www.w3.org/1999/xlink" viewBox="0 0 138 184"><defs><style>.f{fill:url(#e);}.g{fill:url(#d);}.h{fill:url(#c);}.i{fill:url(#b);}</style><linearGradient id="b" x1="-5216.92" y1="4836.21" x2="-5216.92" y2="4901.74" gradientTransform="translate(-4790.84 5309.29) rotate(90) scale(1 -1)" gradientUnits="userSpaceOnUse"><stop offset="0" stop-color="#f6a733"/><stop offset="1" stop-color="#e7261f"/></linearGradient><linearGradient id="c" x1="-5301.39" y1="4890.97" x2="-5132.45" y2="4890.97" xlink:href="#b"/><linearGradient id="d" x1="73.4" y1="176.84" x2="73.41" y2="176.84" gradientTransform="matrix(1, 0, 0, 1, 0, 0)" gradientUnits="userSpaceOnUse"><stop offset="0" stop-color="#44fa98"/><stop offset=".96" stop-color="#025cae"/><stop offset="1" stop-color="#0056af"/></linearGradient><radialGradient id="e" cx="25.73" cy="83.53" fx="25.73" fy="83.53" r="47.69" gradientTransform="matrix(1, 0, 0, 1, 0, 0)" gradientUnits="userSpaceOnUse"><stop offset="0" stop-color="#f6a733"/><stop offset=".03" stop-color="#f5a132"/><stop offset=".25" stop-color="#f0752b"/><stop offset=".46" stop-color="#ec5225"/><stop offset=".66" stop-color="#e93a22"/><stop offset=".85" stop-color="#e72b1f"/><stop offset="1" stop-color="#e7261f"/></radialGradient></defs><g></g><path class="i" d="M137.53,139.87c0-4.21-1.28-8.37-3.75-11.9l-20.62-29.44c-2.62-3.74-2.62-8.72,0-12.46l20.62-29.44c3.74-5.33,4.75-12.11,2.74-18.3-2.01-6.19-6.81-11.08-12.97-13.21L54.09,1.18c-10.63-3.67-22.54,1.48-26.58,11.97-4.24,11.02,1.52,23.27,12.59,27.08l43.92,15.15-17.53,25.03c-5,7.14-5,16.65,0,23.8l17.53,25.03-43.45,14.98c-10.63,3.67-16.84,15.06-13.55,25.82,3.45,11.29,15.54,17.38,26.61,13.57l69.48-23.96c5.3-1.83,9.83-5.56,12.3-10.6,1.43-2.92,2.13-6.05,2.13-9.16Z"/><g><path class="h" d="M87.31,134l-3.3-4.71-17.53-25.03c-5-7.14-5-16.66,0-23.8l17.53-25.03,3.3-4.71c10.75-15.35,3.81-36.73-13.9-42.84l50.15,17.29c6.16,2.12,10.96,7.01,12.97,13.21,2.01,6.19,1,12.97-2.74,18.3l-20.62,29.44c-2.62,3.74-2.62,8.72,0,12.46l20.62,29.44c2.47,3.53,3.75,7.69,3.75,11.9,0,3.11-.7,6.24-2.13,9.16-2.47,5.04-6.99,8.77-12.3,10.6l-49.7,17.14c17.72-6.11,24.65-27.48,13.9-42.84Z"/><path class="g" d="M73.41,176.84h0Z"/></g><circle class="f" cx="21.81" cy="91.09" r="21.81"/></svg>